<svg width="74" height="74" viewBox="0 0 74 74" fill="none" xmlns="http://www.w3.org/2000/svg">
<path d="M0 36.5425C0 16.3523 16.3674 -0.0150204 36.5575 -0.0150204V-0.0150204C56.7476 -0.0150204 73.115 16.3523 73.115 36.5425V36.5425C73.115 56.7326 56.7476 73.1 36.5575 73.1V73.1C16.3674 73.1 0 56.7326 0 36.5425V36.5425Z" fill="#10508D"/>
<path d="M0 36.5425C0 16.3523 16.3674 -0.0150204 36.5575 -0.0150204V-0.0150204C56.7476 -0.0150204 73.115 16.3523 73.115 36.5425V36.5425C73.115 56.7326 56.7476 73.1 36.5575 73.1V73.1C16.3674 73.1 0 56.7326 0 36.5425V36.5425Z" fill="url(#paint0_radial)"/>
<path fill-rule="evenodd" clip-rule="evenodd" d="M30.205 30.9887V58.6024L35.8726 50.8212V23.1674L30.205 30.9887ZM16.7513 49.5812V58.6024H22.36V41.8587L16.7513 49.5812ZM23.4413 40.3462V58.6024H29.125V32.4737L23.4413 40.3462ZM42.5863 30.9887V58.6024L36.9213 50.8212V23.1674L42.5863 30.9887ZM56.04 49.5812V58.6024H50.4313V41.8587L56.04 49.5812ZM49.3513 40.3462V58.6024H43.6663V32.4737L49.3513 40.3462ZM56.2513 14.9387V24.4599L50.4313 32.1774V14.9387H56.2513ZM49.35 33.5899V14.9312H43.6663V30.5374L47.5863 35.9524L49.35 33.5899ZM42.5863 15.1099L37.4488 21.9449L42.5863 29.0437V15.1099ZM16.5188 14.9287V24.4462L22.3375 32.1662V14.9287H16.5188ZM23.4188 33.5787V14.9212H29.1025V30.5262L25.1825 35.9424L23.4188 33.5787ZM30.1838 15.0987L35.3213 21.9337L30.1838 29.0337V15.0987Z" fill="white"/>
<defs>
<radialGradient id="paint0_radial" cx="0" cy="0" r="1" gradientUnits="userSpaceOnUse" gradientTransform="translate(72.3892 962.028) scale(57.0062)">
<stop stop-color="#04A1E6"/>
<stop offset="1" stop-color="#10508D"/>
</radialGradient>
</defs>
</svg>
