<svg width="1976" height="878" viewBox="0 0 1976 878" fill="none" xmlns="http://www.w3.org/2000/svg">
<path fill-rule="evenodd" clip-rule="evenodd" d="M0 0H1976V875.464C1415.75 875.464 1006.16 875.464 747.239 875.464C488.314 875.464 239.234 875.464 0 875.464V0Z" fill="url(#paint0_radial)"/>
<path fill-rule="evenodd" clip-rule="evenodd" d="M0 0C407.277 23.6047 722.667 39.5867 946.17 47.9459C1070.17 52.5836 1134.95 60.7348 1200.54 65.4168C1358.3 76.6774 1415.63 85.6187 1567.4 80.9288C1710.65 76.5023 1846.85 52.0673 1976 7.62392V155.126H0V0Z" transform="translate(0 720.338)" fill="url(#paint1_linear)"/>
<path fill-rule="evenodd" clip-rule="evenodd" d="M0 106.948H1976V0C1805.34 35.6494 1665.94 53.4742 1557.81 53.4742C1395.61 53.4742 1190.79 22.6015 883.408 12.2563C678.483 5.35957 384.014 1.27413 0 0V106.948Z" transform="translate(0 768.516)" fill="url(#paint2_linear)"/>
<path fill-rule="evenodd" clip-rule="evenodd" d="M0 17.6009C360.912 5.86698 636.204 0 825.874 0C1110.38 0 1388.62 42.4203 1547.88 42.4203C1654.04 42.4203 1796.75 31.4145 1976 9.4029V84.8406H0V17.6009Z" transform="translate(0 792.159)" fill="white" stroke="white"/>
<defs>
<radialGradient id="paint0_radial" cx="0.5" cy="0.5" r="0.5" gradientUnits="userSpaceOnUse" gradientTransform="translate(1061.06 -461.184) scale(3626.88 1827.72) rotate(90)">
<stop stop-color="#5054F0"/>
<stop offset="1" stop-color="#490EA1"/>
</radialGradient>
<linearGradient id="paint1_linear" x2="1" gradientUnits="userSpaceOnUse" gradientTransform="translate(0 14.1987) scale(1604.39 125.953)">
<stop stop-color="#64A9F7"/>
<stop offset="0.782757" stop-color="#69A0F8"/>
<stop offset="1" stop-color="#855AFD"/>
</linearGradient>
<linearGradient id="paint2_linear" x2="1" gradientUnits="userSpaceOnUse" gradientTransform="translate(5.09438 10.1062) scale(1592.67 86.201)">
<stop stop-color="#9FD6FF"/>
<stop offset="0.753157" stop-color="#A5C9FF"/>
<stop offset="1" stop-color="#C476FF"/>
</linearGradient>
</defs>
</svg>
