<svg preserveAspectRatio="xMidYMid slice" viewBox='0 0 1440 765' xmlns="http://www.w3.org/2000/svg" xmlns:xlink="http://www.w3.org/1999/xlink">
    <defs>
        <radialGradient cx="100%" cy="65.8437417%" fx="100%" fy="65.8437417%" r="107.489376%" gradientTransform="translate(1.000000,0.658437),scale(0.531005,1.000000),rotate(157.659267),translate(-1.000000,-0.658437)" id="radialGradient-1">
            <stop stop-color="#D352FF" offset="0%"></stop>
            <stop stop-color="#A0D6FF" offset="100%"></stop>
        </radialGradient>
        <radialGradient cx="100%" cy="65.8437417%" fx="100%" fy="65.8437417%" r="107.489376%" gradientTransform="translate(1.000000,0.658437),scale(0.515878,1.000000),rotate(158.235489),translate(-1.000000,-0.658437)" id="radialGradient-2">
            <stop stop-color="#923BFF" offset="0%"></stop>
            <stop stop-color="#65A9F7" offset="100%"></stop>
        </radialGradient>
        <radialGradient cx="44.1366678%" cy="64.8282493%" fx="44.1366678%" fy="64.8282493%" r="94.1488091%" gradientTransform="translate(0.441367,0.648282),scale(0.500347,1.000000),rotate(-13.769252),translate(-0.441367,-0.648282)" id="radialGradient-3">
            <stop stop-color="#5260FF" offset="0%"></stop>
            <stop stop-color="#490FA1" offset="100%"></stop>
        </radialGradient>
    </defs>
    <g id="Desktop-02-Copy-19" stroke="none" stroke-width="1" fill="none" fill-rule="evenodd">
        <g id="bg">
            <path d="M0,0 L1440,0 L1440,691.637738 C1347.44561,714.087924 1240.38319,734.985929 1118.81274,754.331753 C911.751748,787.281913 851.184658,732.224661 544.084531,715.572409 C361.19232,705.655229 179.83081,715.797759 0,746 L0,0 Z" id="Rectangle-10-Copy-2" fill="url(#radialGradient-1)"></path>
            <path d="M0,0 L1440,0 L1440,679.459682 C1314.37041,707.012495 1188.10329,726.724479 1061.19866,738.595633 C865.895138,756.865087 775.184884,711.253704 535.650134,700.283422 C430.822533,695.482497 252.272489,694.250178 0,696.586464 L0,0 Z" id="Rectangle-10-Copy-4" fill="url(#radialGradient-2)"></path>
            <path d="M0,0 L1440,0 L1440,664.25405 C1344.13385,683.119227 1234.26404,698.933768 1110.39057,711.697675 C852.568809,738.263597 817.045593,697.40993 494.938069,684.812748 C274.735761,676.20094 109.756405,662.72491 0,644.384659 L0,0 Z" id="Rectangle-10" fill="url(#radialGradient-3)"></path>
        </g>
    </g>
</svg>