<svg width="1296" height="999" viewBox="0 0 1296 999" fill="none" xmlns="http://www.w3.org/2000/svg">
<rect width="1294" height="998" fill="black" fill-opacity="0" transform="translate(1)"/>
<path d="M897.234 121.338C1018.59 110.189 1000.99 54.298 1122.29 66.0136C1245.78 77.9406 1270.05 147.032 1289.02 201.056L1289.69 202.954C1317.31 281.556 1227.67 324.699 1238.83 407.256C1247.43 470.845 1244.63 507.66 1238.83 571.563C1232.84 637.553 1248.76 686.274 1207.77 738.373C1153.28 807.655 1111.22 824.505 988.412 792.076C865.603 759.647 875.589 887.568 785.533 929.899C658.352 989.681 626.369 998 485.813 998C339.2 998 273.111 925.308 231.539 855.658C163.992 742.491 -21.3651 715.6 3.23212 586.153C20.6797 494.331 175.591 445.417 216.39 361.312C253.246 285.336 158.866 174.541 216.39 112.691C269.85 55.2104 450.209 15.7744 526.389 34.861C696.807 77.5591 737.334 136.028 897.234 121.338Z" fill="#BEBEBE" fill-opacity="0.7"/>
<path d="M879.297 140.497C991.453 130.183 975.191 78.478 1087.3 89.3161C1201.43 100.35 1223.85 164.267 1241.38 214.244L1242 216C1267.53 288.715 1184.68 328.627 1195 405C1202.95 463.826 1200.36 497.883 1195 557C1189.46 618.047 1204.17 663.12 1166.3 711.316C1115.93 775.409 1077.06 790.997 963.563 760.997C850.063 730.997 859.293 849.337 776.063 888.497C658.523 943.801 628.964 951.497 499.063 951.497C363.563 951.497 302.484 884.249 264.063 819.816C201.637 715.125 30.3303 690.249 53.0629 570.497C69.1879 485.553 212.356 440.302 250.063 362.497C284.125 292.212 196.899 189.715 250.063 132.497C299.47 79.3221 466.158 42.8399 536.563 60.4969C694.063 99.9969 731.518 154.087 879.297 140.497Z" fill="url(#paint0_radial)"/>
<rect width="143" height="144" fill="black" fill-opacity="0" transform="translate(865)"/>
<ellipse cx="936.5" cy="72" rx="71.5" ry="72" fill="white"/>
<path d="M1007.5 72C1007.5 111.492 975.709 143.5 936.5 143.5C897.291 143.5 865.5 111.492 865.5 72C865.5 32.5084 897.291 0.5 936.5 0.5C975.709 0.5 1007.5 32.5084 1007.5 72Z" stroke="#C4C4C4" stroke-opacity="0.4"/>
<rect width="131.844" height="76.4151" fill="black" fill-opacity="0" transform="translate(873.113 37.6981)"/>
<ellipse cx="918.076" cy="112.415" rx="1.69031" ry="1.69811" fill="#C4C4C4" fill-opacity="0.4"/>
<path d="M919.391 112.415C919.391 113.147 918.8 113.738 918.076 113.738C917.351 113.738 916.76 113.147 916.76 112.415C916.76 111.683 917.351 111.092 918.076 111.092C918.8 111.092 919.391 111.683 919.391 112.415Z" stroke="#939393" stroke-opacity="0.3" stroke-width="0.75"/>
<ellipse cx="1000.73" cy="65.0377" rx="4.22577" ry="9.33962" fill="#C4C4C4" fill-opacity="0.4"/>
<path d="M1004.58 65.0377C1004.58 67.5761 1004.12 69.856 1003.38 71.4873C1002.62 73.153 1001.66 74.0024 1000.73 74.0024C999.803 74.0024 998.839 73.153 998.085 71.4873C997.347 69.856 996.881 67.5761 996.881 65.0377C996.881 62.4994 997.347 60.2195 998.085 58.5882C998.839 56.9225 999.803 56.0731 1000.73 56.0731C1001.66 56.0731 1002.62 56.9225 1003.38 58.5882C1004.12 60.2195 1004.58 62.4994 1004.58 65.0377Z" stroke="#939393" stroke-opacity="0.3" stroke-width="0.75"/>
<ellipse cx="918.245" cy="97.3019" rx="1.85934" ry="1.86792" fill="#C4C4C4" fill-opacity="0.4"/>
<path d="M919.854 97.3019C919.854 98.1965 919.132 98.9198 918.245 98.9198C917.357 98.9198 916.635 98.1965 916.635 97.3019C916.635 96.4072 917.357 95.684 918.245 95.684C919.132 95.684 919.854 96.4072 919.854 97.3019Z" stroke="#939393" stroke-opacity="0.3" stroke-width="0.5"/>
<ellipse cx="893.228" cy="76.9246" rx="2.53546" ry="2.54717" fill="#C4C4C4" fill-opacity="0.4"/>
<path d="M895.514 76.9246C895.514 78.1943 894.489 79.2217 893.228 79.2217C891.967 79.2217 890.943 78.1943 890.943 76.9246C890.943 75.6548 891.967 74.6274 893.228 74.6274C894.489 74.6274 895.514 75.6548 895.514 76.9246Z" stroke="#939393" stroke-opacity="0.3" stroke-width="0.5"/>
<ellipse cx="967.602" cy="88.8113" rx="2.1974" ry="2.20755" fill="#C4C4C4" fill-opacity="0.4"/>
<path d="M969.299 88.8113C969.299 89.7565 968.537 90.5189 967.602 90.5189C966.666 90.5189 965.904 89.7565 965.904 88.8113C965.904 87.8661 966.666 87.1038 967.602 87.1038C968.537 87.1038 969.299 87.8661 969.299 88.8113Z" stroke="#939393" stroke-opacity="0.3"/>
<ellipse cx="985.35" cy="93.3962" rx="1.35225" ry="1.35849" fill="#C4C4C4" fill-opacity="0.4"/>
<path d="M986.202 93.3962C986.202 93.8725 985.818 94.2547 985.35 94.2547C984.881 94.2547 984.498 93.8725 984.498 93.3962C984.498 92.9199 984.881 92.5377 985.35 92.5377C985.818 92.5377 986.202 92.9199 986.202 93.3962Z" stroke="#939393" stroke-opacity="0.3"/>
<ellipse cx="956.277" cy="64.8679" rx="1.01418" ry="1.01887" fill="#C4C4C4" fill-opacity="0.4"/>
<path d="M956.791 64.8679C956.791 65.1567 956.558 65.3868 956.277 65.3868C955.995 65.3868 955.762 65.1567 955.762 64.8679C955.762 64.5792 955.995 64.3491 956.277 64.3491C956.558 64.3491 956.791 64.5792 956.791 64.8679Z" stroke="#939393" stroke-opacity="0.3"/>
<ellipse cx="955.262" cy="67.5849" rx="1.01418" ry="1.01887" fill="#C4C4C4" fill-opacity="0.4"/>
<path d="M955.777 67.5849C955.777 67.8736 955.544 68.1038 955.262 68.1038C954.981 68.1038 954.748 67.8736 954.748 67.5849C954.748 67.2962 954.981 67.066 955.262 67.066C955.544 67.066 955.777 67.2962 955.777 67.5849Z" stroke="#939393" stroke-opacity="0.3"/>
<ellipse cx="921.963" cy="48.7358" rx="1.85934" ry="1.86792" fill="#C4C4C4" fill-opacity="0.4"/>
<path d="M923.323 48.7358C923.323 49.4935 922.712 50.1038 921.963 50.1038C921.215 50.1038 920.604 49.4935 920.604 48.7358C920.604 47.9782 921.215 47.3679 921.963 47.3679C922.712 47.3679 923.323 47.9782 923.323 48.7358Z" stroke="#939393" stroke-opacity="0.3"/>
<mask id="path-23-inside-1" fill="white">
<ellipse cx="901.68" cy="46.0189" rx="0.845154" ry="0.849057"/>
</mask>
<ellipse cx="901.68" cy="46.0189" rx="0.845154" ry="0.849057" fill="#C4C4C4" fill-opacity="0.4"/>
<path d="M901.525 46.0189C901.525 45.9398 901.59 45.8679 901.68 45.8679V47.8679C902.703 47.8679 903.525 47.0357 903.525 46.0189H901.525ZM901.68 45.8679C901.77 45.8679 901.835 45.9398 901.835 46.0189H899.835C899.835 47.0357 900.656 47.8679 901.68 47.8679V45.8679ZM901.835 46.0189C901.835 46.0979 901.77 46.1698 901.68 46.1698V44.1698C900.656 44.1698 899.835 45.002 899.835 46.0189H901.835ZM901.68 46.1698C901.59 46.1698 901.525 46.0979 901.525 46.0189H903.525C903.525 45.002 902.703 44.1698 901.68 44.1698V46.1698Z" fill="#939393" fill-opacity="0.3" mask="url(#path-23-inside-1)"/>
<ellipse cx="980.11" cy="39.7359" rx="1.52128" ry="2.03774" fill="#C4C4C4" fill-opacity="0.4"/>
<path d="M981.131 39.7359C981.131 40.2014 980.99 40.6034 980.785 40.8776C980.58 41.1518 980.336 41.2736 980.11 41.2736C979.884 41.2736 979.64 41.1518 979.435 40.8776C979.23 40.6034 979.089 40.2014 979.089 39.7359C979.089 39.2703 979.23 38.8683 979.435 38.5941C979.64 38.3199 979.884 38.1981 980.11 38.1981C980.336 38.1981 980.58 38.3199 980.785 38.5941C980.99 38.8683 981.131 39.2703 981.131 39.7359Z" stroke="#939393" stroke-opacity="0.3"/>
<ellipse cx="873.79" cy="42.4528" rx="0.676123" ry="1.01887" fill="#C4C4C4" fill-opacity="0.4"/>
<path d="M874.216 42.4528C874.216 42.6919 874.151 42.8971 874.059 43.035C873.967 43.1749 873.866 43.2217 873.79 43.2217C873.713 43.2217 873.613 43.1749 873.52 43.035C873.428 42.8971 873.363 42.6919 873.363 42.4528C873.363 42.2137 873.428 42.0086 873.52 41.8706C873.613 41.7308 873.713 41.684 873.79 41.684C873.866 41.684 873.967 41.7308 874.059 41.8706C874.151 42.0086 874.216 42.2137 874.216 42.4528Z" stroke="#939393" stroke-opacity="0.3" stroke-width="0.5"/>
<rect width="477" height="406" fill="black" fill-opacity="0" transform="translate(348 46)"/>
<path d="M481.115 151L413.323 184.199L478 217.5L348 282.5L572.5 394.5L614 373.5L729.5 432" stroke="black"/>
<path d="M673 213L825 288.5L763.5 319L797 335.5L683 391L803 452" stroke="black"/>
<path d="M440.5 324L379.5 353L452.5 389L511.5 418L612.5 369L749 437" stroke="black"/>
<path d="M746.5 315L785.5 335L672 390.5L776.5 443" stroke="black"/>
<path d="M540.5 291L501 310.5L737.5 428.5" stroke="black"/>
<path d="M458.5 76.0183L490.77 60L523.5 76.0183V143.982L490.77 160L458.5 143.982V76.0183Z" fill="url(#paint1_radial)"/>
<path d="M458.5 76.0183L490.77 60L523.5 76.0183M458.5 76.0183L490.77 92.0366M458.5 76.0183V143.982L490.77 160M523.5 76.0183L490.77 92.0366M523.5 76.0183V143.982L490.77 160M490.77 92.0366V160" stroke="url(#paint2_radial)"/>
<path d="M550.5 88.0183L582.77 72L615.5 88.0183V155.982L582.77 172L550.5 155.982V88.0183Z" fill="url(#paint3_radial)"/>
<path d="M550.5 88.0183L582.77 72L615.5 88.0183M550.5 88.0183L582.77 104.037M550.5 88.0183V155.982L582.77 172M615.5 88.0183L582.77 104.037M615.5 88.0183V155.982L582.77 172M582.77 104.037V172" stroke="url(#paint4_radial)"/>
<path d="M591.5 74.5126L648.592 46L706.5 74.5126V195.487L648.592 224L591.5 195.487V74.5126Z" fill="url(#paint5_radial)"/>
<path d="M591.5 74.5126L648.592 46L706.5 74.5126M591.5 74.5126L648.592 103.025M591.5 74.5126V195.487L648.592 224M706.5 74.5126L648.592 103.025M706.5 74.5126V195.487L648.592 224M648.592 103.025V224" stroke="url(#paint6_radial)"/>
<path d="M500.5 109.018L532.77 93L565.5 109.018V176.982L532.77 193L500.5 176.982V109.018Z" fill="url(#paint7_radial)"/>
<path d="M500.5 109.018L532.77 93L565.5 109.018M500.5 109.018L532.77 125.037M500.5 109.018V176.982L532.77 193M565.5 109.018L532.77 125.037M565.5 109.018V176.982L532.77 193M532.77 125.037V193" stroke="url(#paint8_radial)"/>
<path d="M513.5 128L583.5 93L654.5 128V276.5L583.5 311.5L513.5 276.5V128Z" fill="url(#paint9_radial)"/>
<path d="M513.5 128L583.5 93L654.5 128M513.5 128L583.5 163M513.5 128V276.5L583.5 311.5M654.5 128L583.5 163M654.5 128V276.5L583.5 311.5M583.5 163V311.5" stroke="url(#paint10_radial)"/>
<path d="M635.5 150L705.5 115L776.5 150V298.5L705.5 333.5L635.5 298.5V150Z" fill="url(#paint11_radial)"/>
<path d="M635.5 150L705.5 115L776.5 150M635.5 150L705.5 185M635.5 150V298.5L705.5 333.5M776.5 150L705.5 185M776.5 150V298.5L705.5 333.5M705.5 185V333.5" stroke="url(#paint12_radial)"/>
<path d="M420.5 165L490.5 130L561.5 165V313.5L490.5 348.5L420.5 313.5V165Z" fill="url(#paint13_radial)"/>
<path d="M420.5 165L490.5 130L561.5 165M420.5 165L490.5 200M420.5 165V313.5L490.5 348.5M561.5 165L490.5 200M561.5 165V313.5L490.5 348.5M490.5 200V348.5" stroke="url(#paint14_radial)"/>
<rect width="96" height="78" fill="black" fill-opacity="0" transform="translate(722.5 393)"/>
<path d="M722.5 405.316L746.5 393H794.5L818.5 405.316V429.263V459.368L794.5 471H746.5L722.5 459.368V429.263V405.316Z" fill="url(#paint15_radial)"/>
<path d="M818.5 429.263V405.316L794.5 393H746.5L722.5 405.316V429.263M818.5 429.263L794.5 441.579H746.5L722.5 429.263M818.5 429.263V459.368L794.5 471H746.5L722.5 459.368V429.263" stroke="url(#paint16_radial)"/>
<path d="M758.602 400C752.892 411.929 760.001 434.019 765.825 426.459C782.569 404.724 777.609 430.334 791.5 425.988" stroke="white" stroke-width="5"/>
<path d="M738 457C738 457 710.003 471.029 698.5 476.298C679.5 485 680.04 494.195 695 502C718 514 732.5 521.627 758.5 533.5C768.5 538.067 778 553 758.5 562.191C720.615 580.048 662.5 610 662.5 610" stroke="#F2C94C" stroke-width="4"/>
<rect width="560" height="572" fill="black" fill-opacity="0" transform="translate(162 339)"/>
<path d="M436.995 641.009L265.498 727.308L181.601 767.991M436.995 641.009L722 781.552M436.995 641.009V404.305M722 781.552L462.905 911L181.601 767.991M722 781.552V544.848L436.995 404.305M181.601 767.991L168.029 544.848M168.029 544.848L309.915 346.362M168.029 544.848C168.029 539.974 236.463 504.109 309.915 467.134M436.995 404.305C402.727 420.955 355.36 444.257 309.915 467.134M436.995 404.305L309.915 346.362M309.915 346.362V467.134" stroke="black"/>
<path d="M437.239 646.972V405.212L722 545.974V781.372L437.239 646.972Z" fill="url(#paint17_radial)" stroke="black"/>
<path d="M181.908 768.648L166.795 545.974L436.443 405.212V642.996L181.908 768.648Z" fill="url(#paint18_radial)"/>
<path d="M437.239 642.201L181.908 767.057L464.283 911L720.409 780.577L437.239 642.201Z" fill="url(#paint19_radial)"/>
<path d="M346.928 532.52L224.783 576.902L166 546.081L431.671 407.598L719.532 546.081L686.22 560.875L654.142 538.684L538.166 520.192L454.268 479.508H366.669L346.928 532.52Z" fill="url(#paint20_radial)"/>
<path d="M292.642 822.236V754.43L224.783 666.899V576.902M224.783 576.902L346.928 532.52L366.669 479.508H454.268L538.166 520.192L654.142 538.684L686.22 560.875L719.532 546.081L431.671 407.598L166 546.081L224.783 576.902Z" stroke="black" stroke-width="0.5"/>
<path d="M434.057 406.802L167.591 545.974L310.767 346.362L434.057 406.802Z" fill="#141769" stroke="black"/>
<path d="M225 576.5L162 544.848L314 339L722 544.848L697.324 554.711L652.908 516.493L545.568 470.878L451.8 422.798H319.785L303.746 475.81L225 576.5Z" fill="url(#paint21_radial)" stroke="black" stroke-width="0.5"/>
<path d="M293.268 824.521L181.908 767.262L166 547.769L224.066 576.398V667.058L293.268 754.538V824.521Z" fill="url(#paint22_radial)" stroke="black" stroke-width="0.5"/>
<rect width="101.814" height="209.155" fill="black" fill-opacity="0" transform="translate(166.795 555.517)"/>
<path d="M192.249 751.152L181.113 745.585V754.333L192.249 759.9V751.152Z" fill="#D69464" fill-opacity="0.14"/>
<path d="M187.476 728.884V720.136L204.976 728.884V737.632L187.476 728.884Z" fill="#D69464" fill-opacity="0.14"/>
<path d="M230.429 725.703V716.955L247.928 725.703V734.451L230.429 725.703Z" fill="#D69464" fill-opacity="0.14"/>
<path d="M251.11 755.923V747.175L268.609 755.923V764.671L251.11 755.923Z" fill="#D69464" fill-opacity="0.14"/>
<path d="M206.567 693.893V685.145L224.066 693.893V702.641L206.567 693.893Z" fill="#D69464" fill-opacity="0.14"/>
<path d="M181.113 665.263V656.515L198.612 665.263V674.011L181.113 665.263Z" fill="#D69464" fill-opacity="0.14"/>
<path d="M201.794 641.405V632.657L219.293 641.405V650.153L201.794 641.405Z" fill="#D69464" fill-opacity="0.14"/>
<path d="M177.931 612.776V604.028L195.431 612.776V621.524L177.931 612.776Z" fill="#D69464" fill-opacity="0.14"/>
<path d="M201.794 595.28V586.532L219.293 595.28V604.028L201.794 595.28Z" fill="#D69464" fill-opacity="0.14"/>
<path d="M167.591 565.855L166.795 555.517L177.931 563.469V572.217L167.591 565.855Z" fill="#D69464" fill-opacity="0.14"/>
<rect width="284.761" height="209.95" fill="black" fill-opacity="0" transform="translate(386.332 605.618)"/>
<path d="M476.482 670.71L389.217 714.164L389.217 648.994L476.482 609.903V670.71Z" fill="#C4C4C4" stroke="#C0C0C0" stroke-width="0.25"/>
<path d="M389.194 714.164L386.332 712.736V655.606V655.606C386.332 651.321 386.332 644.181 394.726 648.491C403.12 652.801 564.335 735.59 568.064 737.58C572.357 739.872 578.081 744.157 578.081 751.298V815.568L575.219 814.14V751.298C575.219 749.87 575.731 744.076 566.889 739.872C559.006 736.123 401.689 654.178 394.726 651.322C387.763 648.465 389.194 654.178 389.194 655.606V714.164Z" fill="#C4C4C4" stroke="#C4C4C4" stroke-width="0.25"/>
<g filter="url(#filter0_d)">
<rect width="103.029" height="119.971" fill="black" fill-opacity="0" transform="translate(568.064 695.597)"/>
<path d="M578.081 749.87C578.081 742.729 569.495 738.444 569.495 738.444L659.645 697.025C659.645 697.025 666.8 698.454 668.231 708.451C669.662 718.449 671.093 769.865 671.093 769.865L578.081 815.568V749.87Z" fill="#C0C0C0"/>
<g filter="url(#filter1_f)">
<path d="M668.231 712.736L578.081 751.298C578.081 751.298 578.461 745.964 575.219 742.728C571.977 739.493 568.064 737.015 568.064 737.015L659.645 695.597C659.645 695.597 663.938 698.453 666.8 702.738C669.662 707.023 668.231 712.736 668.231 712.736Z" fill="#C9C9C9"/>
<path d="M668.231 712.736L578.081 751.298C578.081 751.298 578.461 745.964 575.219 742.728C571.977 739.493 568.064 737.015 568.064 737.015L659.645 695.597C659.645 695.597 663.938 698.453 666.8 702.738C669.662 707.023 668.231 712.736 668.231 712.736Z" stroke="#DCE0ED" stroke-width="0.25"/>
</g>
</g>
<path d="M386.332 712.736L389.194 714.164L389.194 655.606C389.194 649.269 393.487 651.322 393.487 651.322V648.465C393.487 648.465 386.332 644.181 386.332 654.178V712.736Z" fill="#B5B4B4"/>
<path d="M393.487 648.465C393.487 648.465 386.332 644.181 386.332 654.178C386.332 664.176 386.332 712.736 386.332 712.736L389.194 714.164C389.194 714.164 389.194 661.944 389.194 655.606C389.194 649.269 393.487 651.322 393.487 651.322V648.465ZM393.487 648.465L479.344 605.618" stroke="#B5B4B4" stroke-width="0.25"/>
<path d="M659.645 697.025L569.495 738.444C569.495 738.444 395.146 648.013 394.317 647.525C393.487 647.037 389.194 647.037 389.194 647.037L395.333 643.486L479.345 605.618L659.645 697.025Z" fill="#DEDEDE" stroke="#DEDEDE" stroke-width="0.25"/>
<path d="M569.495 738.444V741.3C569.495 741.3 575.219 744.157 575.219 749.87V814.14L578.081 815.568V749.87C578.081 742.728 569.495 738.444 569.495 738.444Z" fill="#C0C0C0" stroke="#C0C0C0" stroke-width="0.25"/>
<rect width="104.996" height="95.4318" fill="black" fill-opacity="0" transform="translate(494.509 589.713)"/>
<path d="M551.612 648.44V657.617H553.454V648.44H551.612Z" fill="#C4C4C4" stroke="#B5B5B5" stroke-width="0.25"/>
<path d="M527.666 653.946L525.824 652.111L553.454 655.781L566.349 670.463H564.507L551.612 657.617L527.666 653.946Z" fill="#C4C4C4" stroke="#B5B5B5" stroke-width="0.25" stroke-linejoin="round"/>
<rect width="104.996" height="95.4318" fill="black" fill-opacity="0" transform="translate(494.509 589.713)"/>
<path d="M553.454 648.44C532.368 637.205 494.509 631.923 494.509 631.923V589.713C494.509 589.713 531.851 590.197 553.454 598.889C573.62 607.003 599.505 630.088 599.505 630.088L597.663 685.145C597.663 685.145 573.272 658.999 553.454 648.44Z" fill="black" stroke="#D7D7D7" stroke-width="0.1"/>
<path d="M553.454 600.725C532.621 592.027 496.351 591.548 496.351 591.548V630.088C496.351 630.088 533.019 636.023 553.454 646.605C572.496 656.466 595.821 679.639 595.821 679.639L597.663 631.923C597.663 631.923 572.043 608.485 553.454 600.725Z" fill="#FDFDFD"/>
<path d="M525.531 621.524V598.461C525.531 598.461 540.385 599.837 549.393 603.233C559.334 606.98 574.052 616.752 574.052 616.752V643.791C574.052 643.791 557.835 632.855 547.007 627.886C538.886 624.159 525.531 621.524 525.531 621.524Z" stroke="black"/>
<path d="M529.508 618.343L531.099 615.957L534.28 618.343L535.871 615.957L539.848 612.776L539.053 617.547H543.03L544.621 612.776L547.803 610.39C548.333 611.715 549.234 614.525 548.598 615.162C547.962 615.798 548.863 618.078 549.393 619.138L550.984 623.91C552.045 622.849 554.166 620.569 554.166 619.933C554.166 619.297 555.757 617.017 556.552 615.957L558.938 615.162C560.529 616.222 563.711 618.502 563.711 619.138C563.711 619.774 564.241 622.054 564.506 623.114C565.302 624.175 567.052 626.454 567.688 627.091C568.324 627.727 570.605 625.235 571.665 623.91" stroke="#219653" stroke-width="0.5"/>
<rect width="19.7406" height="24.8612" fill="black" fill-opacity="0" transform="translate(455.502 647.174)"/>
<path d="M475.242 660.735C475.242 661.41 473.41 663.08 472.775 664.433C472.25 665.55 472.919 666.376 472.775 666.899C471.901 668.132 474.143 668.595 473.828 669.24C472.802 671.341 469.483 671.83 466.606 671.83C461.836 671.83 457.969 666.863 457.969 660.735C457.969 654.607 461.836 649.639 466.606 649.639C469.164 649.639 471.193 651.068 472.775 653.338C473.492 654.367 472.511 655.672 472.775 657.036C473.014 658.275 474.486 659.562 475.242 660.735Z" fill="#FEEDC2"/>
<path d="M469.851 652.539C469.851 652.539 470.387 652.98 470.647 653.334C471.982 655.159 470.914 656.906 469.851 658.901C468.916 660.656 467.125 660.942 466.67 662.877C466.151 665.078 466.785 665.935 468.26 667.649L469.851 669.24C470.723 670.101 472.237 670.83 472.237 670.83C472.237 670.83 466.67 674.011 461.897 670.035C459.327 667.893 457.945 664.632 457.92 661.287C457.888 657.12 462.692 651.744 462.692 651.744L469.851 652.539Z" fill="#F8DD97"/>
<path d="M468.581 652.842C468.581 652.842 470.556 652.346 471.048 651.609C471.541 650.872 470.036 648.859 468.581 647.91C466.563 646.595 464.749 647.327 462.412 647.91C460.321 648.433 458.77 648.654 457.477 650.376C456.563 651.594 456.542 652.582 456.243 654.075C455.77 656.435 454.843 658.28 456.243 660.239C456.639 660.793 456.83 661.256 457.477 661.472C458.499 661.812 458.711 660.239 459.944 660.239C461.178 660.239 459.791 657.17 461.178 656.54C462.649 655.872 463.312 658.781 464.879 658.389C465.402 658.259 466.113 657.773 466.113 657.773V654.075L468.581 652.842Z" fill="black"/>
<rect width="133.328" height="103.558" fill="black" fill-opacity="0" transform="translate(438.149 669.365)"/>
<path d="M542.004 759.392L520.587 765.271C520.069 765.413 519.755 765.939 519.878 766.463L521.145 771.891C521.276 772.451 521.851 772.785 522.402 772.623L563.695 760.427C564.826 760.093 564.548 758.42 563.37 758.469L542.227 759.357C542.152 759.36 542.077 759.372 542.004 759.392Z" fill="black" stroke="black"/>
<path d="M460.437 675.529C464.138 674.296 462.905 669.364 462.905 669.364H470.307C470.307 669.364 471.541 674.009 472.775 675.529C476.733 680.403 485.113 675.529 487.58 677.994C490.048 680.46 488.814 702.651 487.58 717.445C486.369 731.966 514.371 701.946 520.893 714.979C528.295 729.773 533.231 763.06 533.231 763.06L522.126 766.758L513.49 732.239L485.113 744.567L446.865 735.938C446.865 735.938 434.527 676.761 443.164 676.761C460.437 676.761 453.581 677.812 460.437 675.529Z" fill="#FEEDC2"/>
<path d="M461.102 725.703L488.146 715.365C488.146 715.365 487.562 718.551 488.146 719.341C489.14 720.687 491.246 720.092 492.918 720.136C495.422 720.203 496.1 719.076 497.691 717.751C499.282 716.425 501.827 714.411 502.464 713.774C502.464 713.774 511.743 711.919 515.986 711.389C520.228 710.858 519.777 712.212 521.554 713.774C522.72 714.8 523.089 715.657 523.94 716.955C525.997 720.094 526.727 722.144 527.917 725.703C529.714 731.078 529.275 734.445 530.303 740.018C531.684 747.506 534.28 759.104 534.28 759.104L519.963 763.081L510.418 732.065L500.873 740.018L465.874 743.199L461.102 725.703Z" fill="#B78080"/>
<path d="M482.645 679.227L481.411 684.159L480.178 690.323V695.254L481.411 701.418C482.234 703.473 484.126 707.829 485.113 708.815C486.1 709.802 487.169 712.514 487.58 713.747L492.515 716.212L498.684 717.445C499.918 717.856 502.632 718.431 503.619 717.445C504.607 716.459 508.966 715.39 511.022 714.98L515.957 713.747H522.126L524.131 710.048L524.594 708.815L523.36 703.884L518.425 701.418L515.957 703.884L514.724 707.583L509.788 710.048L499.918 708.815L494.983 705.117L493.749 700.186V689.09V682.464V677.994L490.048 676.762H485.113L482.645 679.227Z" fill="#FEEDC2"/>
<path d="M461.897 674.806C466.133 673.776 469.199 673.527 473.033 675.602C474.399 676.341 474.797 677.354 476.215 677.987C479.347 679.387 484.964 677.192 484.964 677.192C484.964 677.192 492.918 675.602 492.918 677.987C492.918 682.646 495.305 685.94 492.918 689.916C491.587 692.135 486.953 690.657 485.443 690.102L487.351 716.16L465.079 724.908L446.784 721.727L442.807 702.641C442.807 702.641 445.214 697.444 445.989 693.893C446.654 690.843 449.445 684.308 446.784 685.94C445.24 686.887 446.075 689.233 444.398 689.916C442.578 690.657 441.162 689.549 439.625 688.326C435.669 685.177 440.785 680.506 442.011 675.602C442.807 672.421 450.884 678.607 456.329 677.192C458.619 676.597 459.598 675.365 461.897 674.806Z" fill="white"/>
<path d="M461.897 674.806C466.133 673.776 469.199 673.527 473.033 675.602C474.399 676.341 474.797 677.354 476.215 677.987C479.347 679.387 484.964 677.192 484.964 677.192C484.964 677.192 492.918 675.602 492.918 677.987C492.918 682.646 495.305 685.94 492.918 689.916C491.32 692.579 484.964 689.916 484.964 689.916V683.554L487.351 716.16L465.079 724.908L446.784 721.727L442.807 702.641C442.807 702.641 445.214 697.444 445.989 693.893C446.654 690.843 449.445 684.308 446.784 685.94C445.24 686.887 446.075 689.233 444.398 689.916C442.578 690.657 441.162 689.549 439.625 688.326C435.669 685.177 440.785 680.506 442.011 675.602C442.807 672.421 450.884 678.607 456.329 677.192C458.619 676.597 459.598 675.365 461.897 674.806Z" stroke="#F8F8F8"/>
<rect width="92.951" height="115.886" fill="black" fill-opacity="0" transform="translate(426.85 669.365)"/>
<ellipse cx="477.71" cy="750.732" rx="7.40273" ry="4.93134" fill="black"/>
<path d="M465.988 697.464L432.208 683.497C431.55 683.225 430.826 683.709 430.826 684.421V723.609L466.606 738.403V698.388C466.606 697.984 466.362 697.619 465.988 697.464Z" fill="#0F0646" stroke="#0F0646"/>
<path d="M467.84 670.597H466.606H465.372V671.83L467.84 673.063H471.541L470.647 670.035L470.307 669.364L467.84 670.597Z" fill="#E7C97D"/>
<ellipse cx="476.476" cy="775.388" rx="18.5068" ry="9.86267" fill="black"/>
<path d="M477.71 765.526V742.102" stroke="black" stroke-width="4" stroke-linecap="round"/>
<path d="M465.372 696.487C465.372 696.487 465.372 719.911 465.372 733.472C465.372 742.556 476.188 744.072 485.113 745.8C498.29 748.352 517.191 733.472 517.191 733.472" stroke="black"/>
<path d="M466.606 697.72C466.606 697.72 465.372 718.678 465.372 731.006C465.372 740.305 474.851 741.891 483.879 739.636C488.814 738.403 494.394 735.161 499.918 732.239L518.425 722.376L519.659 733.472C519.659 733.472 501.779 749.811 487.58 750.732C470.378 751.846 452.247 747.725 448.099 731.006C445.596 720.918 455.746 715.404 454.268 705.117C453.225 697.858 446.865 687.857 446.865 687.857L453.034 690.323L465.372 695.254L466.606 697.72Z" fill="#141769"/>
<path d="M518.425 722.376L519.659 733.472C519.659 733.472 501.779 749.811 487.58 750.732C470.378 751.846 452.247 747.725 448.099 731.006C445.596 720.918 455.746 715.404 454.268 705.117C453.225 697.858 446.865 687.857 446.865 687.857L453.034 690.323L465.372 695.254L466.606 697.72C466.606 697.72 465.372 718.678 465.372 731.006C465.372 740.305 474.851 741.891 483.879 739.636C488.814 738.403 494.394 735.161 499.918 732.239M518.425 722.376C518.425 722.376 509.57 727.134 499.918 732.239M518.425 722.376L499.918 732.239" stroke="#141769" stroke-width="0.25"/>
<path d="M482.645 750.731C497.953 750.359 505.684 743.192 518.425 734.704C522.126 732.239 517.191 721.143 517.191 721.143C517.191 721.143 498.684 732.239 486.346 737.17C482.645 738.65 467.84 739.525 467.84 732.239C467.84 723.753 468.753 703.402 469.008 697.886C469.047 697.039 468.561 696.278 467.775 695.96C461.571 693.451 435.031 682.78 429.592 681.693C423.423 680.46 429.592 722.376 429.592 722.376C429.592 722.376 433.254 735.385 439.462 739.636C452.824 748.783 466.453 751.125 482.645 750.731Z" fill="url(#paint23_radial)" stroke="url(#paint24_radial)" stroke-width="0.13"/>
<ellipse cx="488.814" cy="754.43" rx="1.23379" ry="1.23283" fill="black"/>
<path d="M481.411 753.197L488.814 754.43" stroke="black" stroke-width="0.5"/>
<rect width="94.6552" height="62.8259" fill="black" fill-opacity="0" transform="translate(500.077 594.485)"/>
<rect width="13.4259" height="29.9982" fill="black" fill-opacity="0" transform="translate(502.464 597.666)"/>
<path d="M503.974 597.666L515.849 599.072" stroke="black"/>
<path d="M503.811 600.843L515.685 602.249" stroke="black"/>
<path d="M503.647 604.019L515.522 605.426" stroke="black"/>
<path d="M503.484 607.196L515.359 608.603" stroke="black"/>
<path d="M503.321 610.373L515.195 611.78" stroke="black"/>
<path d="M503.157 613.55L515.032 614.956" stroke="black"/>
<path d="M502.994 616.727L514.869 618.133" stroke="black"/>
<path d="M502.831 619.904L514.706 621.31" stroke="black"/>
<path d="M502.668 623.081L514.542 624.487" stroke="black"/>
<path d="M502.504 626.257L514.379 627.664" stroke="black"/>
<path d="M525.531 632.657V623.909C525.531 623.909 537.825 626.594 546.212 630.272C555.531 634.358 573.256 646.177 573.256 646.177L572.461 655.72C572.461 655.72 557.743 646.203 547.803 641.405C539.726 637.507 525.531 632.657 525.531 632.657Z" stroke="black"/>
<path d="M576.438 644.586L577.233 618.343L594.732 631.862L593.142 657.311L576.438 644.586Z" stroke="black"/>
<ellipse cx="585.187" cy="637.429" rx="6.36338" ry="7.95265" fill="#C4C4C4"/>
<path d="M585.187 629.476V637.429M585.187 637.429L590.755 639.815M585.187 637.429V645.382" stroke="black"/>
<path d="M585.187 644.586V637.429L590.755 639.815C590.755 639.815 590.466 642.741 589.165 643.791C587.932 644.786 585.187 644.586 585.187 644.586Z" fill="#EB5757" stroke="black"/>
<path d="M585.187 630.272V637.429L590.755 639.815C590.755 639.815 591.211 635.622 589.96 633.453C588.124 630.272 585.187 630.272 585.187 630.272Z" fill="#219653" stroke="black"/>
<path d="M578.824 637.429C578.824 630.272 584.392 630.272 584.392 630.272V644.586C584.392 644.586 578.824 644.586 578.824 637.429Z" fill="#2F80ED" stroke="black"/>
<path d="M531.099 604.028L533.485 606.414L535.871 604.823L536.667 609.595L537.462 614.366L539.848 619.138L542.235 621.524L546.212 616.752L550.189 612.776H555.757L558.143 616.752L559.734 623.909L562.12 629.476L564.506 632.657L567.688 621.524L570.87 630.272V634.248" stroke="#EB5757" stroke-width="0.5"/>
<path d="M500.077 627.886V594.485L519.167 596.075V631.067L500.077 627.886Z" stroke="black"/>
<path d="M237 782C216.862 758.668 177.5 736 177.5 736L146.5 759L191.5 786L228.5 850.5L270 829C270 829 251.958 799.33 237 782Z" fill="#D2D2D2" fill-opacity="0.85"/>
<defs>
<filter id="filter0_d" x="563.801" y="695.454" width="111.419" height="128.315" filterUnits="userSpaceOnUse" color-interpolation-filters="sRGB">
<feFlood flood-opacity="0" result="BackgroundImageFix"/>
<feColorMatrix in="SourceAlpha" type="matrix" values="0 0 0 0 0 0 0 0 0 0 0 0 0 0 0 0 0 0 255 0"/>
<feOffset dy="4"/>
<feGaussianBlur stdDeviation="2"/>
<feColorMatrix type="matrix" values="0 0 0 0 0 0 0 0 0 0 0 0 0 0 0 0 0 0 0.25 0"/>
<feBlend mode="normal" in2="BackgroundImageFix" result="effect1_dropShadow"/>
<feBlend mode="normal" in="SourceGraphic" in2="effect1_dropShadow" result="shape"/>
</filter>
<filter id="filter1_f" x="564.801" y="692.454" width="106.913" height="62.0389" filterUnits="userSpaceOnUse" color-interpolation-filters="sRGB">
<feFlood flood-opacity="0" result="BackgroundImageFix"/>
<feBlend mode="normal" in="SourceGraphic" in2="BackgroundImageFix" result="shape"/>
<feGaussianBlur stdDeviation="1.5" result="effect1_foregroundBlur"/>
</filter>
<radialGradient id="paint0_radial" cx="0" cy="0" r="1" gradientUnits="userSpaceOnUse" gradientTransform="translate(943 148) rotate(131.325) scale(970.733 1677.79)">
<stop stop-color="white"/>
<stop offset="1" stop-color="#0F0646"/>
</radialGradient>
<radialGradient id="paint1_radial" cx="0" cy="0" r="1" gradientUnits="userSpaceOnUse" gradientTransform="translate(593.34 38.4897) rotate(152.927) scale(156.87 100.803)">
<stop stop-color="white"/>
<stop offset="1" stop-color="#0F0646"/>
</radialGradient>
<radialGradient id="paint2_radial" cx="0" cy="0" r="1" gradientUnits="userSpaceOnUse" gradientTransform="translate(570.521 9.19909) rotate(131.268) scale(179.623 116.025)">
<stop stop-color="#F9F9F9"/>
<stop offset="0.0001" stop-color="white"/>
<stop offset="1" stop-color="#0F0646"/>
</radialGradient>
<radialGradient id="paint3_radial" cx="0" cy="0" r="1" gradientUnits="userSpaceOnUse" gradientTransform="translate(685.34 50.4897) rotate(152.927) scale(156.87 100.803)">
<stop stop-color="white"/>
<stop offset="1" stop-color="#0F0646"/>
</radialGradient>
<radialGradient id="paint4_radial" cx="0" cy="0" r="1" gradientUnits="userSpaceOnUse" gradientTransform="translate(662.521 21.1991) rotate(131.268) scale(179.623 116.025)">
<stop stop-color="#F9F9F9"/>
<stop offset="0.0001" stop-color="white"/>
<stop offset="1" stop-color="#0F0646"/>
</radialGradient>
<radialGradient id="paint5_radial" cx="0" cy="0" r="1" gradientUnits="userSpaceOnUse" gradientTransform="translate(830.064 7.71167) rotate(152.786) scale(277.89 179.202)">
<stop stop-color="white"/>
<stop offset="1" stop-color="#0F0646"/>
</radialGradient>
<radialGradient id="paint6_radial" cx="0" cy="0" r="1" gradientUnits="userSpaceOnUse" gradientTransform="translate(789.691 -44.4256) rotate(131.095) scale(318.889 205.815)">
<stop stop-color="#F9F9F9"/>
<stop offset="0.0001" stop-color="white"/>
<stop offset="1" stop-color="#0F0646"/>
</radialGradient>
<radialGradient id="paint7_radial" cx="0" cy="0" r="1" gradientUnits="userSpaceOnUse" gradientTransform="translate(635.34 71.4897) rotate(152.927) scale(156.87 100.803)">
<stop stop-color="white"/>
<stop offset="1" stop-color="#0F0646"/>
</radialGradient>
<radialGradient id="paint8_radial" cx="0" cy="0" r="1" gradientUnits="userSpaceOnUse" gradientTransform="translate(612.521 42.1991) rotate(131.268) scale(179.623 116.025)">
<stop stop-color="#F9F9F9"/>
<stop offset="0.0001" stop-color="white"/>
<stop offset="1" stop-color="#0F0646"/>
</radialGradient>
<radialGradient id="paint9_radial" cx="0" cy="0" r="1" gradientUnits="userSpaceOnUse" gradientTransform="translate(806 46) rotate(152.758) scale(340.801 219.922)">
<stop stop-color="white"/>
<stop offset="1" stop-color="#0F0646"/>
</radialGradient>
<radialGradient id="paint10_radial" cx="0" cy="0" r="1" gradientUnits="userSpaceOnUse" gradientTransform="translate(756.5 -18) rotate(131.062) scale(391.247 252.475)">
<stop stop-color="#F9F9F9"/>
<stop offset="0.0001" stop-color="white"/>
<stop offset="1" stop-color="#0F0646"/>
</radialGradient>
<radialGradient id="paint11_radial" cx="0" cy="0" r="1" gradientUnits="userSpaceOnUse" gradientTransform="translate(928 68) rotate(152.758) scale(340.801 219.922)">
<stop stop-color="white"/>
<stop offset="1" stop-color="#0F0646"/>
</radialGradient>
<radialGradient id="paint12_radial" cx="0" cy="0" r="1" gradientUnits="userSpaceOnUse" gradientTransform="translate(878.5 4) rotate(131.062) scale(391.247 252.475)">
<stop stop-color="#F9F9F9"/>
<stop offset="0.0001" stop-color="white"/>
<stop offset="1" stop-color="#0F0646"/>
</radialGradient>
<radialGradient id="paint13_radial" cx="0" cy="0" r="1" gradientUnits="userSpaceOnUse" gradientTransform="translate(713 83) rotate(152.758) scale(340.801 219.922)">
<stop stop-color="white"/>
<stop offset="1" stop-color="#0F0646"/>
</radialGradient>
<radialGradient id="paint14_radial" cx="0" cy="0" r="1" gradientUnits="userSpaceOnUse" gradientTransform="translate(663.5 19) rotate(131.062) scale(391.247 252.475)">
<stop stop-color="#F9F9F9"/>
<stop offset="0.0001" stop-color="white"/>
<stop offset="1" stop-color="#0F0646"/>
</radialGradient>
<radialGradient id="paint15_radial" cx="0" cy="0" r="1" gradientUnits="userSpaceOnUse" gradientTransform="translate(901 208) rotate(118.702) scale(299.842 119.624)">
<stop stop-color="white"/>
<stop offset="1" stop-color="#0F0646"/>
</radialGradient>
<radialGradient id="paint16_radial" cx="0" cy="0" r="1" gradientUnits="userSpaceOnUse" gradientTransform="translate(887.947 353.375) rotate(148.959) scale(204.224 117.559)">
<stop stop-color="#F9F9F9"/>
<stop offset="0.0001" stop-color="white"/>
<stop offset="1" stop-color="#0F0646"/>
</radialGradient>
<radialGradient id="paint17_radial" cx="0" cy="0" r="1" gradientUnits="userSpaceOnUse" gradientTransform="translate(459.511 650.153) rotate(-18.0309) scale(287.757 217.76)">
<stop stop-color="#141769"/>
<stop offset="1" stop-color="#676CDD"/>
</radialGradient>
<radialGradient id="paint18_radial" cx="0" cy="0" r="1" gradientUnits="userSpaceOnUse" gradientTransform="translate(389.514 510.187) rotate(127.489) scale(326.737 242.384)">
<stop stop-color="#585CBD"/>
<stop offset="1" stop-color="#0D105E"/>
</radialGradient>
<radialGradient id="paint19_radial" cx="0" cy="0" r="1" gradientUnits="userSpaceOnUse" gradientTransform="translate(665.525 695.483) rotate(162.214) scale(424.358 849.834)">
<stop stop-color="#6064C7"/>
<stop offset="1" stop-color="#141766"/>
</radialGradient>
<radialGradient id="paint20_radial" cx="0" cy="0" r="1" gradientUnits="userSpaceOnUse" gradientTransform="translate(214.521 553.131) rotate(-3.62318) scale(478.209 638.146)">
<stop stop-color="#1B1E70"/>
<stop offset="1" stop-color="#5C61CE"/>
</radialGradient>
<radialGradient id="paint21_radial" cx="0" cy="0" r="1" gradientUnits="userSpaceOnUse" gradientTransform="translate(207.362 538.021) rotate(-15.2342) scale(441.874 1069.48)">
<stop stop-color="#3A40C2"/>
<stop offset="1" stop-color="#A3A5DB"/>
</radialGradient>
<radialGradient id="paint22_radial" cx="0" cy="0" r="1" gradientUnits="userSpaceOnUse" gradientTransform="translate(214.521 559.698) rotate(90.7615) scale(239.396 110.089)">
<stop stop-color="#C28246"/>
<stop offset="1" stop-color="#1B1E70"/>
</radialGradient>
<radialGradient id="paint23_radial" cx="0" cy="0" r="1" gradientUnits="userSpaceOnUse" gradientTransform="translate(441.93 694.021) rotate(75.64) scale(54.7215 73.5957)">
<stop stop-color="#282C9A"/>
<stop offset="1" stop-color="#0C0F52"/>
</radialGradient>
<radialGradient id="paint24_radial" cx="0" cy="0" r="1" gradientUnits="userSpaceOnUse" gradientTransform="translate(441.93 694.021) rotate(75.64) scale(54.7215 73.5957)">
<stop stop-color="#282C9A"/>
<stop offset="1" stop-color="#0C0F52"/>
</radialGradient>
</defs>
</svg>
