<svg width="74" height="74" viewBox="0 0 74 74" fill="none" xmlns="http://www.w3.org/2000/svg">
<path d="M0 36.5575C0 16.3674 16.3674 -5.72205e-06 36.5575 -5.72205e-06V-5.72205e-06C56.7476 -5.72205e-06 73.115 16.3674 73.115 36.5575V36.5575C73.115 56.7476 56.7476 73.115 36.5575 73.115V73.115C16.3674 73.115 0 56.7476 0 36.5575V36.5575Z" fill="white"/>
<path fill-rule="evenodd" clip-rule="evenodd" d="M30.205 31.0037V58.6174L35.8726 50.8362V23.1824L30.205 31.0037ZM16.7513 49.5962V58.6174H22.36V41.8737L16.7513 49.5962ZM23.4413 40.3612V58.6174H29.125V32.4887L23.4413 40.3612ZM42.5863 31.0037V58.6174L36.9213 50.8362V23.1824L42.5863 31.0037ZM56.04 49.5962V58.6174H50.4313V41.8737L56.04 49.5962ZM49.3513 40.3612V58.6174H43.6663V32.4887L49.3513 40.3612ZM56.2513 14.9537V24.4749L50.4313 32.1924V14.9537H56.2513ZM49.35 33.6049V14.9462H43.6663V30.5524L47.5863 35.9674L49.35 33.6049ZM42.5863 15.1249L37.4488 21.9599L42.5863 29.0587V15.1249ZM16.5188 14.9437V24.4612L22.3375 32.1812V14.9437H16.5188ZM23.4188 33.5937V14.9362H29.1025V30.5412L25.1825 35.9574L23.4188 33.5937ZM30.1838 15.1137L35.3213 21.9487L30.1838 29.0487V15.1137Z" fill="#333333"/>
</svg>
